<svg xmlns="http://www.w3.org/2000/svg" viewBox="0 0 64 64" fill="none" stroke-linecap="round" stroke-linejoin="round">
  <circle cx="32" cy="18" r="7" fill="#facc15"/>
  <g stroke="#facc15" stroke-width="2.5">
    <line x1="32" y1="4" x2="32" y2="8"/>
    <line x1="32" y1="28" x2="32" y2="32"/>
    <line x1="18" y1="18" x2="22" y2="18"/>
    <line x1="42" y1="18" x2="46" y2="18"/>
    <line x1="22.1" y1="8.1" x2="24.9" y2="10.9"/>
    <line x1="39.1" y1="10.9" x2="41.9" y2="8.1"/>
    <line x1="22.1" y1="27.9" x2="24.9" y2="25.1"/>
    <line x1="39.1" y1="25.1" x2="41.9" y2="27.9"/>
  </g>
  <rect x="13" y="40" width="34" height="18" rx="3" stroke="#94a3b8" stroke-width="2.5"/>
  <rect x="47" y="45" width="3" height="8" rx="1" fill="#94a3b8"/>
  <rect x="16" y="43" width="6" height="12" rx="1" fill="#22c55e"/>
  <rect x="24" y="43" width="6" height="12" rx="1" fill="#22c55e"/>
  <rect x="32" y="43" width="6" height="12" rx="1" fill="#22c55e"/>
</svg>
